<!--?xml version="1.0" encoding="utf-8"?-->
<!-- Generator: Adobe Illustrator 19.1.1, SVG Export Plug-In . SVG Version: 6.00 Build 0)  -->
<svg version="1.1" id="_x31_0" xmlns="http://www.w3.org/2000/svg" xmlns:xlink="http://www.w3.org/1999/xlink" x="0px" y="0px" viewBox="0 0 512 512" style="width: 64px; height: 64px; opacity: 1;" xml:space="preserve">
<style type="text/css">
	.st0{fill:#374149;}
</style>
<g>
	<path class="st0" d="M130.826,37.05c2.492-0.37,4.985-0.59,7.473-0.734c11.57-0.661,22.847,0.511,33.461,3.297l1.832-7.398
		c0.222-0.805,1.25-0.879,1.614-0.145c0.949,2.488,2.562,6.442,3.953,9.809c9.238,3.105,17.898,7.5,25.789,12.957
		c0.07,0.05,0.145,0.094,0.215,0.141h0.004c0.043,0.031,0.09,0.054,0.133,0.086l4.031-6.515c0.363-0.734,1.461-0.516,1.535,0.289
		c0.148,2.785,0.512,7.324,0.879,10.984c6.094,5.012,11.613,10.711,16.527,16.914c0.355,0.469,0.801,0.89,1.144,1.359l0.016-0.015
		c0.035,0.042,0.074,0.078,0.106,0.121l4.613-5.34c0.266-0.266,0.602-0.285,0.891-0.21l0.304,0.335
		c0.11,0.145,0.294,0.231,0.27,0.458c-0.289,3.078-0.801,8.129-1.023,11.938c6.442,10.105,11.278,21.382,13.988,33.538
		c0.41-1.878,0.91-3.75,1.41-5.621c0.39-1.469,0.821-2.926,1.266-4.379c1.055-3.441,2.25-6.843,3.606-10.202
		c0.562-1.395,1.152-2.774,1.766-4.145c0.738-1.656,1.465-3.317,2.278-4.942c4.172-8.278,9.078-15.965,14.863-22.996
		c-8.055-39.981-44.23-68.906-85.746-66.492c-24.606,1.465-46.062,13.695-60.121,31.855
		C126.217,34.191,128.045,37.414,130.826,37.05z" style="fill: rgb(58, 171, 210);"></path>
	<path class="st0" d="M460.717,116.426c2.93,1.539,5.86,3.074,8.719,4.762c0.726,0.438,1.461,0.586,2.121,0.586
		c2.562,0,4.762-2.344,4.027-5.129c-7.617-29.508-27.312-55.504-56.535-70.149c-15.519-7.84-32.07-11.5-48.402-11.5
		c-38.297,0-75.351,20.215-95.558,55.508c-1.102,1.832-2.125,3.738-3.074,5.637c-5.422,10.914-8.937,22.191-10.546,33.613
		l-0.074,0.074c-0.363,0.586-0.73,1.172-1.172,1.684c-2.05-1.028-4.465-0.95-6.371,0.07c-0.277,0.121-0.41,0.402-0.656,0.558
		c-0.625,0.363-1.23,0.75-1.934,1.11c-0.172-0.41-0.336-0.836-0.558-1.227v-0.07c-1.023-2.199-2.051-4.394-3.297-6.519v-0.07
		c-3-5.566-6.59-10.984-10.762-16.043c-35.074-42.617-97.688-49.058-139.864-14.351c-22.847,18.746-35.078,45.77-35.882,73.379
		c-0.062,2.777,2.754,4.297,5.102,3.398c0.023-0.008,0.047-0.024,0.074-0.035c0.41-0.168,0.84-0.246,1.195-0.582
		c2.199-2.125,4.469-4.102,6.738-6.008c10.762-8.859,22.554-15.668,34.855-20.43l-3.442-8.492c-0.367-0.879,0.582-1.683,1.391-1.172
		c2.706,1.684,7.031,4.394,10.762,6.59c11.144-3.45,22.633-5.258,34.066-5.532c0.164,0,0.324-0.019,0.488-0.019v-0.004
		c0.051-0.004,0.106-0.008,0.16-0.008l-0.805-9.23c-0.078-0.949,1.098-1.461,1.754-0.734c2.125,2.566,5.637,6.668,8.641,10.035
		c9.523,0.481,19.038,2.094,28.262,4.692c0.578,0.175,1.172,0.308,1.746,0.492l0.004-0.027c0.051,0.015,0.106,0.027,0.157,0.042
		l0.808-8.422c0.07-0.95,1.317-1.242,1.754-0.442c1.906,3.153,4.984,8.426,7.472,12.305c17.574,6.957,33.902,17.722,47.45,32.442
		v0.074c-0.254,5.332-0.562,10.965-0.879,16.934l-0.246,2.835c-21.426-18.562-49.114-30.316-79.754-31.347
		c-10.105-0.336-19.93,0.621-29.43,2.496c-0.289,0.058-0.566,0.133-0.855,0.187c-3.641,0.746-7.226,1.61-10.75,2.653
		c-0.902,0.266-1.773,0.586-2.668,0.871c-2.859,0.918-5.695,1.867-8.465,2.973c-1.578,0.625-3.102,1.347-4.648,2.031
		c-2.031,0.906-4.07,1.793-6.047,2.801c-2.172,1.098-4.258,2.32-6.351,3.538c-1.297,0.758-2.618,1.465-3.887,2.266
		c-2.57,1.618-5.035,3.371-7.476,5.161c-0.75,0.554-1.531,1.062-2.27,1.633c-2.703,2.078-5.29,4.289-7.813,6.57
		c-0.449,0.406-0.926,0.781-1.367,1.195c-2.539,2.359-4.942,4.851-7.277,7.414c-0.41,0.446-0.848,0.863-1.254,1.321
		c-2.106,2.378-4.07,4.874-5.992,7.406c-0.578,0.758-1.199,1.473-1.758,2.238c-1.477,2.043-2.813,4.184-4.172,6.317
		c-0.891,1.39-1.836,2.742-2.672,4.172c-0.738,1.27-1.371,2.605-2.066,3.902c-8.946,16.586-14.414,35.328-15.09,55.386
		c-1.246,37.914,14.394,72.508,40.304,96.656c3.126,2.891,8.219,0.489,8.051-3.781c-0.149-3.856-0.137-7.715-0.027-11.598
		c0.602-17.832,3.988-34.91,9.82-50.809l-11.07-3.828c-1.168-0.422-1.148-2.039,0.039-2.406c3.914-1.152,10.207-3.039,15.504-4.77
		c6.098-13.656,14.09-26.266,23.531-37.582c0.121-0.14,0.226-0.293,0.348-0.43l-0.004-0.003c0.035-0.043,0.066-0.086,0.098-0.126
		l-9.496-7.019c-1.008-0.73-0.512-2.344,0.746-2.313c4.246,0.098,11.199,0.199,16.914,0.157l0.046-0.016
		c8.57-8.726,18.133-16.512,28.485-23.203c0.668-0.418,1.313-0.886,1.984-1.293l-0.019-0.02c0.047-0.031,0.09-0.062,0.137-0.09
		l-7.481-7.902c-0.843-0.882-0.09-2.312,1.122-2.113c4.59,0.874,12.281,2.363,18.148,3.316
		c21.508-11.117,45.797-17.484,71.39-18.074c0.879-0.015,1.75-0.078,2.634-0.078c-1.734,23.894-4.524,51.598-8.922,81.969
		c-0.144,0.98-0.301,1.957-0.449,2.934c-1.297,8.804-2.762,17.859-4.344,27.074c-1.621,9.246-3.27,18.485-5.125,27.641
		c0.019-0.004,0.039-0.004,0.058-0.008c-0.008,0.055-0.019,0.11-0.031,0.165c11.57-2.2,23.508-3.371,35.664-3.371
		c17.394,0,34.168,2.461,50.168,6.843c2.066,0.586,4.16,1.074,6.203,1.734c-0.004-0.015-0.004-0.035-0.004-0.054
		c0.054,0.019,0.11,0.031,0.164,0.047c-2.758-41.532-8.582-91.938-20.324-136.801c-1.114-4.305-2.274-8.563-3.5-12.758
		c-0.426-1.441-0.848-2.878-1.286-4.305c-1.926-6.308-3.969-12.488-6.175-18.441c20.187-0.141,39.648,3.886,57.355,11.273
		c5.125-1.242,11.859-3.074,15.886-4.246c0.238-0.051,0.454-0.012,0.653,0.066c0.074,0.027,0.129,0.078,0.195,0.121
		c0.301,0.199,0.508,0.508,0.535,0.863c0.008,0.086-0.012,0.161-0.023,0.242c-0.024,0.18-0.059,0.367-0.184,0.539l-4.996,6.199
		l-1.012,1.203c0.012,0.004,0.02,0.011,0.027,0.015l-0.102,0.126c10.399,5.418,20.066,12.011,28.852,19.699h0.074
		c5.054-0.367,11.203-0.954,15.011-1.391c1.098-0.078,1.684,1.317,0.805,2.047l-7.285,6.34l-0.512,0.43
		c0.004,0.004,0.008,0.004,0.008,0.004l-0.121,0.109c9.374,9.446,17.503,20.286,24.023,32.149
		c4.758,1.172,10.543,2.418,14.058,3.149c1.098,0.218,1.242,1.687,0.222,2.125l-9.121,3.965l-0.328,0.137v0.004l-0.145,0.066
		c6.367,13.695,10.543,28.633,12.375,44.449c0.363,3.442,0.656,6.813,0.805,10.25c0.023,0.602,0.316,1.046,0.539,1.535
		c0.023,0.054,0.031,0.117,0.058,0.171c1.004,1.969,3.254,2.801,5.274,1.954c0.074-0.031,0.137-0.082,0.21-0.118
		c0.454-0.222,0.934-0.343,1.313-0.758c21.309-23.285,32.73-55.066,28.926-88.676c-2.867-25.019-13.878-47.105-30-64.183
		c-0.086-0.09-0.172-0.18-0.254-0.27c-2.23-2.344-4.543-4.59-6.957-6.738c-0.145-0.125-0.29-0.242-0.43-0.367
		c-2.414-2.121-4.898-4.145-7.484-6.054c-0.114-0.09-0.234-0.168-0.352-0.254c-22.386-16.422-50.804-24.894-80.695-21.503
		c-11.203,1.316-21.894,4.175-31.781,8.347c-8.055,3.367-15.594,7.618-22.481,12.738c-1.078,0.758-2.027,1.699-3.074,2.504
		c-2.335,1.774-4.582,3.574-6.758,5.442c-0.652-1.454-1.305-2.902-2.031-4.282c10.18-14.942,22.848-27.386,37.199-37.125
		c1.688-4.836,3.734-11.203,4.981-15.086c0.144-0.511,0.586-0.734,1.027-0.734c0.438,0,0.879,0.294,1.023,0.809l2.398,7.25
		l0.454,1.472c0.007-0.007,0.019-0.007,0.027-0.015l0.05,0.152c1.555-0.882,3.157-1.675,4.742-2.496
		c1.789-0.926,3.606-1.812,5.453-2.668c3.035-1.402,6.118-2.691,9.234-3.882c2.657-1.004,5.34-1.965,8.09-2.828
		c1.203-0.383,2.394-0.809,3.602-1.161h0.07c2.347-4.32,5.129-9.594,6.812-12.886c0.219-0.367,0.586-0.586,0.954-0.586
		c0.507,0,1.023,0.363,1.098,1.027l1.285,9.246l0.074,0.63c0.004,0,0.008,0,0.012,0l0.023,0.156
		c9.222-1.906,18.672-2.856,28.117-2.856c3.516,0,7.102,0.145,10.618,0.438c3.511-3.297,7.469-7.32,9.961-9.812
		c0.218-0.219,0.508-0.293,0.805-0.293c0.586,0,1.172,0.511,1.023,1.246l-1.566,9.668l-0.019,0.133l0,0l-0.024,0.156
		C432.674,105.078,446.951,109.543,460.717,116.426z" style="fill: rgb(58, 171, 210);"></path>
	<path class="st0" d="M322.248,379.68c-17.945-6.738-37.496-10.398-57.851-10.398c-13.988,0-27.606,1.758-40.566,5.054
		c-61,15.23-107.942,64.145-118.484,125.07C104.174,506,110.252,512,118.013,512h292.692c7.832,0,13.914-6,12.738-12.594
		C413.928,444.414,374.674,399.156,322.248,379.68z M162.025,458.398c10.469-20.504,29.145-36.172,51.988-43.129
		c7.25-2.274,14.938-3.59,22.922-3.957c0.074,0,0.074,0,0.148,0c6.516-0.219,10.469,7.324,6.661,12.523
		c-1.317,1.828-2.637,3.734-3.879,5.637c-7.031,10.621-12.742,21.75-16.988,33.246c-1.102,3.074-3.883,5.13-7.106,5.274
		l-46.207,1.977C163.416,470.262,159.241,463.817,162.025,458.398z" style="fill: rgb(58, 171, 210);"></path>
</g>
</svg>
