<!--?xml version="1.0" encoding="utf-8"?-->
<!-- Generator: Adobe Illustrator 19.1.1, SVG Export Plug-In . SVG Version: 6.00 Build 0)  -->
<svg version="1.1" id="_x31_0" xmlns="http://www.w3.org/2000/svg" xmlns:xlink="http://www.w3.org/1999/xlink" x="0px" y="0px" viewBox="0 0 512 512" style="width: 128px; height: 128px; opacity: 1;" xml:space="preserve">
<style type="text/css">
	.st0{fill:#374149;}
</style>
<g>
	<path class="st0" d="M485.127,125.971l-96.122-58.932l-1.902-1.171l4.437-7.054l-11.044-39.737l-4.526-16.289l-0.633-2.445h-0.09
		l-0.09-0.09L259.757,112.396l9.865,17.016l3.296,5.678l1.504,2.738h-24.623l-8.405-0.062l-3.952-0.102l14.802-25.268l-78.291-76.03
		L141.097,4.327l-4.074-4.074l-0.09,0.09l-0.09-0.09l-16.382,58.561l4.436,7.058l-98.024,60.099
		c-8.436,5.17-13.575,14.356-13.575,24.248v333.268c0,15.75,12.758,28.513,28.419,28.513h428.566
		c15.656,0,28.419-12.762,28.419-28.513v-333.26C498.702,140.362,493.543,131.04,485.127,125.971z M328.452,127.146l-14.208,22.538
		l-4.557,7.178l-2.094,3.163l-26.115-44.646l84.898-82.454l6.518,23.26L328.452,127.146z M243.101,182.095l-21.902,150.602
		c0,0,37.246,62.337,48.989,81.344c1.972,3.262,3.202,5.277,3.343,5.472c-0.008-0.082-0.016-0.16-0.024-0.238
		c0.098,0.129,0.168,0.222,0.188,0.222c-7.878-77.115-13.669-147.079-14.754-191.702c-0.211-8.454-0.199-16.054-0.016-22.694
		c0.086-1.679,0.188-3.323,0.317-4.913c6.393,29.013,13.466,61.97,14.817,71.413c0.179,1.359,0.27,2.266,0.086,2.535l0.184-0.18
		v0.27c1.628-2.625,28.06-43.084,28.06-43.084s-10.861-20.542-21.995-40.818c-1.312-2.539-2.691-5.062-4.014-7.534l-0.352-0.793
		h2.558l2.804-16.383l1.3-7.088l1.051-5.07l16.019,27.365l7.334,12.579h0.039l0.004,0.008l0.004-0.008h0.042l0.09,0.09
		l60.642-96.935l94.583,58.018v308.188c0,7.198-5.834,13.032-13.032,13.032H62.533c-7.198,0-13.033-5.834-13.033-13.032V154.574
		l94.584-58.018l33.668,53.761l16.965,27.194l9.869,15.992l0.055-0.09l0.086,0.168l13.486-22.987l5.854-9.896l4.406-7.213
		l4.944,28.513h6.971l2.589,0.086L243.101,182.095z M212.6,145.974l-5.792,9.775l-1.87,3.089l-0.797,1.195L139.105,56.186
		l6.518-23.26l84.899,82.454L212.6,145.974z" style="fill: rgb(75, 75, 75);"></path>
	<polygon class="st0" points="306.57,38.62 340.965,5.077 345.921,0.274 345.89,0.274 346.054,0.117 346.006,0.117 345.921,0.117 
		241.327,0.117 166.071,0 166.188,0.117 166.15,0.117 166.122,0.117 166.083,0.117 166.052,0.117 165.958,0.117 205.465,38.62 	" style="fill: rgb(75, 75, 75);"></polygon>
	<path class="st0" d="M338.618,451.799h86.606c7.334,0,13.278-5.948,13.278-13.282v-86.602c0-10.365-12.532-15.554-19.858-8.228
		l-88.25,88.249C323.062,439.266,328.253,451.799,338.618,451.799z" style="fill: rgb(75, 75, 75);"></path>
</g>
</svg>
